<svg width="179" height="56" viewBox="0 0 179 56" fill="none" xmlns="http://www.w3.org/2000/svg">
<path d="M143.303 46.6714L143.396 46.7393V46.6714H143.303Z" fill="white"/>
<path d="M28.4096 0.40625C28.6715 0.40625 28.9172 0.40625 29.1791 0.40625L29.1388 1.22464L28.6312 10.9735L28.4821 13.8958L27.3944 33.3216L27.0883 38.731C25.8569 38.2377 24.5897 37.8373 23.2974 37.5333L23.9782 21.7523L17.6293 30.9343L13.7096 36.5233C9.88686 36.5927 6.08418 37.0882 2.37331 38.0004C1.12866 34.8331 0.493297 31.4629 0.500053 28.0639C0.500053 20.7287 3.44052 13.6938 8.67457 8.507C13.9086 3.32018 21.0075 0.40625 28.4096 0.40625" fill="#F8B64D"/>
<path d="M31.8823 0.641846C36.9517 1.27169 41.7492 3.26921 45.7513 6.41645C49.7534 9.5637 52.8063 13.7398 54.577 18.489C56.3477 23.2382 56.7681 28.3782 55.7923 33.348C54.8166 38.3178 52.4821 42.9266 49.0437 46.6715C48.9263 46.8125 48.7998 46.9458 48.6651 47.0707L31.8823 0.641846Z" fill="#F27B3F"/>
<path d="M38.2393 53.502C37.2866 53.8645 36.3142 54.1737 35.3266 54.4282C35.2984 54.4282 35.2662 54.4561 35.238 54.4561C30.1621 55.9412 23.6198 55.3104 21.6659 54.8553C21.4887 54.8154 21.3678 54.7955 21.3678 54.7955C16.3735 53.5307 11.8374 50.9027 8.27515 47.2103C9.77778 46.376 13.2302 45.1584 17.4642 45.2462C22.8664 45.366 25.3601 47.3581 27.7329 48.6675C30.851 50.424 33.8562 53.0589 38.2393 53.486" fill="white"/>
<path d="M155.328 32.6151L155.239 32.5193C155.26 32.5472 155.296 32.5672 155.324 32.5991C155.352 32.6311 155.324 32.5991 155.324 32.5991" fill="white"/>
<path d="M173.702 19.1455L173.771 19.1974V19.1455H173.702Z" fill="white"/>
<path d="M85.3085 17.2253L77.9726 34.5233L71.1241 17.2253H63.8284L73.9481 39.8169C74.486 41.0075 75.3605 42.0182 76.4657 42.7267C77.571 43.4351 78.8598 43.8111 80.1761 43.8091L92.3785 17.2053L85.3085 17.2253Z" fill="white"/>
<path d="M152.202 29.7406C152.202 25.6047 153.411 22.2367 155.828 19.6364C158.245 17.0362 161.426 15.7361 165.371 15.7361C169.529 15.7361 172.758 16.9856 175.06 19.4847C177.361 21.9838 178.511 25.4024 178.508 29.7406C178.508 34.0628 177.337 37.5 174.995 40.0523C172.653 42.6047 169.445 43.8782 165.371 43.8728C161.214 43.8728 157.98 42.586 155.671 40.0124C153.361 37.4388 152.207 34.0149 152.21 29.7406H152.202ZM158.857 29.7406C158.857 35.7208 161.028 38.7096 165.371 38.707C166.292 38.733 167.204 38.5344 168.029 38.1285C168.854 37.7226 169.565 37.122 170.101 36.3795C171.261 34.8226 171.849 32.6109 171.849 29.7406C171.849 23.8482 169.684 20.9019 165.355 20.9019C164.431 20.8745 163.513 21.0728 162.684 21.4793C161.855 21.8859 161.14 22.4883 160.601 23.2334C159.425 24.7876 158.838 26.9567 158.841 29.7406" fill="white"/>
<path d="M149.152 18.4348L146.373 23.2494C144.85 21.8228 142.807 21.1109 140.245 21.1136C137.788 21.1136 135.845 21.924 134.416 23.5448C132.987 25.1656 132.273 27.4079 132.273 30.2716C132.273 36.0522 135.051 38.9439 140.608 38.9465C142.955 38.9717 145.227 38.1258 146.977 36.5752L149.366 41.6452C147.852 42.6496 146.18 43.3971 144.419 43.8569C142.776 44.1896 141.101 44.3448 139.424 44.32C135.126 44.32 131.737 43.0811 129.256 40.6033C126.774 38.1255 125.532 34.6816 125.529 30.2716C125.529 25.9308 126.888 22.423 129.606 19.7482C132.324 17.0735 136.029 15.7361 140.721 15.7361C143.757 15.6756 146.726 16.6258 149.152 18.4348Z" fill="white"/>
<path d="M120.425 43.4019C116.932 43.5456 114.346 42.36 114.318 40.316C111.812 42.6368 109.118 43.7971 106.237 43.7971C104.535 43.8393 102.845 43.5112 101.285 42.8359C99.7251 42.1606 98.3337 41.1547 97.2087 39.8888C94.848 37.2274 93.6676 33.9006 93.6676 29.9084C93.6676 25.9961 94.848 22.7372 97.2087 20.1316C98.3052 18.8743 99.6678 17.8719 101.2 17.1957C102.731 16.5195 104.395 16.1861 106.071 16.2193C109.133 16.2193 111.881 17.4688 114.314 19.9679V16.9578H120.421L120.425 43.4019ZM99.8796 29.9244C99.8796 32.4235 100.551 34.4595 101.894 36.0324C102.529 36.7958 103.33 37.4076 104.237 37.8223C105.143 38.237 106.133 38.4439 107.131 38.4277C108.156 38.4643 109.176 38.2769 110.119 37.8788C111.063 37.4807 111.906 36.8816 112.59 36.1242C113.981 34.5273 114.675 32.5086 114.672 30.0681C114.67 27.6276 113.983 25.6062 112.614 24.004C111.943 23.2425 111.111 22.6382 110.176 22.235C109.241 21.8318 108.227 21.6397 107.207 21.6726C106.213 21.6571 105.227 21.8608 104.321 22.2688C103.416 22.6768 102.613 23.279 101.97 24.032C100.564 25.6728 99.8218 27.7725 99.8877 29.9244" fill="white"/>
</svg>
