<svg width="178" height="55" viewBox="0 0 178 55" fill="none" xmlns="http://www.w3.org/2000/svg">
<g clip-path="url(#clip0_627_3357)">
<path d="M142.803 46.2651L142.896 46.333V46.2651H142.803Z" fill="#134472"/>
<path d="M27.9095 0C28.1713 0 28.4171 0 28.6789 0L28.6386 0.818393L28.1311 10.5672L27.982 13.4895L26.8943 32.9154L26.5881 38.3247C25.3568 37.8315 24.0896 37.4311 22.7973 37.1271L23.4781 21.3461L17.1292 30.5281L13.2094 36.1171C9.38674 36.1865 5.58406 36.682 1.87319 37.5942C0.628536 34.4269 -0.00682546 31.0567 -6.87422e-05 27.6577C-6.87422e-05 20.3224 2.94039 13.2876 8.17445 8.10075C13.4085 2.91393 20.5074 0 27.9095 0" fill="#F8B641"/>
<path d="M31.3821 0.235535C36.4516 0.865374 41.2491 2.86289 45.2512 6.01014C49.2533 9.15739 52.3062 13.3335 54.0769 18.0827C55.8476 22.8319 56.268 27.9719 55.2922 32.9417C54.3165 37.9115 51.982 42.5203 48.5436 46.2652C48.4262 46.4062 48.2997 46.5395 48.1649 46.6644L31.3821 0.235535Z" fill="#F47B34"/>
<path d="M37.7391 53.0957C36.7865 53.4582 35.8141 53.7674 34.8265 54.0219C34.7983 54.0219 34.7661 54.0499 34.7379 54.0499C29.662 55.535 23.1196 54.9042 21.1658 54.4491C20.9886 54.4092 20.8677 54.3892 20.8677 54.3892C15.8734 53.1244 11.3373 50.4965 7.77502 46.8041C9.27766 45.9697 12.7301 44.7521 16.9641 44.8399C22.3663 44.9597 24.86 46.9518 27.2328 48.2612C30.3508 50.0178 33.3561 52.6526 37.7391 53.0798" fill="#134472"/>
<path d="M154.828 32.2088L154.739 32.1129C154.759 32.1409 154.796 32.1608 154.824 32.1928C154.852 32.2247 154.824 32.1928 154.824 32.1928" fill="#134472"/>
<path d="M173.202 18.7392L173.271 18.7911V18.7392H173.202Z" fill="#134472"/>
<path d="M84.8084 16.819L77.4724 34.117L70.624 16.819H63.3283L73.4479 39.4106C73.9859 40.6012 74.8603 41.6119 75.9656 42.3203C77.0709 43.0288 78.3597 43.4048 79.676 43.4028L91.8784 16.799L84.8084 16.819Z" fill="#134472"/>
<path d="M151.702 29.3344C151.702 25.1985 152.91 21.8305 155.328 19.2302C157.745 16.63 160.926 15.3299 164.871 15.3299C169.028 15.3299 172.258 16.5794 174.56 19.0785C176.861 21.5776 178.011 24.9962 178.008 29.3344C178.008 33.6566 176.837 37.0938 174.495 39.6461C172.153 42.1985 168.945 43.472 164.871 43.4666C160.714 43.4666 157.48 42.1798 155.17 39.6062C152.861 37.0326 151.707 33.6087 151.71 29.3344H151.702ZM158.357 29.3344C158.357 35.3147 160.528 38.3034 164.871 38.3008C165.792 38.3268 166.704 38.1282 167.529 37.7223C168.354 37.3164 169.065 36.7158 169.601 35.9734C170.761 34.4164 171.349 32.2048 171.349 29.3344C171.349 23.442 169.184 20.4958 164.855 20.4958C163.93 20.4683 163.013 20.6666 162.184 21.0731C161.355 21.4797 160.64 22.0821 160.101 22.8272C158.925 24.3815 158.338 26.5505 158.341 29.3344" fill="#134472"/>
<path d="M148.652 18.0286L145.873 22.8431C144.35 21.4166 142.307 20.7047 139.745 20.7073C137.288 20.7073 135.345 21.5177 133.916 23.1386C132.487 24.7594 131.773 27.0016 131.773 29.8654C131.773 35.646 134.551 38.5377 140.108 38.5403C142.455 38.5655 144.727 37.7196 146.477 36.169L148.866 41.239C147.352 42.2434 145.68 42.9908 143.919 43.4507C142.275 43.7833 140.6 43.9386 138.923 43.9138C134.626 43.9138 131.237 42.6749 128.755 40.1971C126.274 37.7193 125.032 34.2754 125.029 29.8654C125.029 25.5245 126.388 22.0168 129.106 19.342C131.824 16.6673 135.529 15.3299 140.221 15.3299C143.257 15.2694 146.225 16.2196 148.652 18.0286Z" fill="#134472"/>
<path d="M119.925 42.9956C116.432 43.1393 113.846 41.9536 113.818 39.9096C111.312 42.2304 108.618 43.3908 105.736 43.3908C104.035 43.4329 102.345 43.1048 100.785 42.4296C99.225 41.7543 97.8336 40.7483 96.7086 39.4825C94.3479 36.821 93.1675 33.4942 93.1675 29.5021C93.1675 25.5898 94.3479 22.3308 96.7086 19.7253C97.8051 18.468 99.1677 17.4655 100.7 16.7894C102.231 16.1132 103.895 15.7798 105.571 15.813C108.633 15.813 111.38 17.0625 113.814 19.5616V16.5515H119.921L119.925 42.9956ZM99.3795 29.518C99.3795 32.0171 100.051 34.0531 101.394 35.626C102.029 36.3895 102.83 37.0013 103.736 37.4159C104.643 37.8306 105.632 38.0375 106.631 38.0213C107.656 38.0579 108.676 37.8705 109.619 37.4724C110.563 37.0743 111.406 36.4753 112.089 35.7179C113.481 34.121 114.175 32.1023 114.172 29.6618C114.17 27.2212 113.483 25.1999 112.114 23.5977C111.443 22.8361 110.61 22.2319 109.675 21.8287C108.74 21.4254 107.727 21.2333 106.707 21.2662C105.713 21.2508 104.727 21.4544 103.821 21.8624C102.915 22.2705 102.113 22.8727 101.47 23.6256C100.064 25.2665 99.3217 27.3661 99.3875 29.518" fill="#134472"/>
</g>
<defs>
<clipPath id="clip0_627_3357">
<rect width="178" height="55" fill="white"/>
</clipPath>
</defs>
</svg>
